<svg xmlns="http://www.w3.org/2000/svg" viewBox="0 0 16 16" shape-rendering="crispEdges">
<style>.g{fill:#E8843A}.p{fill:#FFB0B0}</style>
<!-- inner-left toe bean -->
<rect class="g" x="3" y="0" width="2" height="1"/>
<rect class="g" x="2" y="1" width="1" height="2"/>
<rect class="p" x="3" y="1" width="2" height="2"/>
<rect class="g" x="5" y="1" width="1" height="2"/>
<rect class="g" x="3" y="3" width="2" height="1"/>
<!-- inner-right toe bean -->
<rect class="g" x="10" y="0" width="2" height="1"/>
<rect class="g" x="9" y="1" width="1" height="2"/>
<rect class="p" x="10" y="1" width="2" height="2"/>
<rect class="g" x="12" y="1" width="1" height="2"/>
<rect class="g" x="10" y="3" width="2" height="1"/>
<!-- outer-left toe bean -->
<rect class="g" x="1" y="4" width="2" height="1"/>
<rect class="g" x="0" y="5" width="1" height="2"/>
<rect class="p" x="1" y="5" width="2" height="2"/>
<rect class="g" x="3" y="5" width="1" height="2"/>
<rect class="g" x="1" y="7" width="2" height="1"/>
<!-- outer-right toe bean -->
<rect class="g" x="13" y="4" width="2" height="1"/>
<rect class="g" x="12" y="5" width="1" height="2"/>
<rect class="p" x="13" y="5" width="2" height="2"/>
<rect class="g" x="15" y="5" width="1" height="2"/>
<rect class="g" x="13" y="7" width="2" height="1"/>
<!-- main pad -->
<rect class="g" x="4" y="8" width="8" height="1"/>
<rect class="g" x="3" y="9" width="1" height="1"/>
<rect class="p" x="4" y="9" width="8" height="1"/>
<rect class="g" x="12" y="9" width="1" height="1"/>
<rect class="g" x="2" y="10" width="1" height="2"/>
<rect class="p" x="3" y="10" width="10" height="2"/>
<rect class="g" x="13" y="10" width="1" height="2"/>
<rect class="g" x="3" y="12" width="1" height="1"/>
<rect class="p" x="4" y="12" width="8" height="1"/>
<rect class="g" x="12" y="12" width="1" height="1"/>
<rect class="g" x="4" y="13" width="8" height="1"/>
</svg>
